<?xml version="1.0" encoding="iso-8859-1"?>
<!DOCTYPE svg PUBLIC "-//W3C//DTD SVG 20000303 Stylable//EN" "http://www.w3.org/TR/2000/03/WD-SVG-20000303/DTD/svg-20000303-stylable.dtd">
<!-- Creator: CorelDRAW -->
<svg xml:space="preserve" x="-2.33625in" y="-3.71417in" width="4.58625in" height="1.28583in" style="shape-rendering:geometricPrecision; text-rendering:geometricPrecision; image-rendering:optimizeQuality"
     viewBox="-2336 0 4586 1286">
 <defs>
  <style type="text/css">
   <![CDATA[
    .fil0 {fill:#DA251D}
   ]]>
  </style>
 </defs>
 <g id="Layer 1">
  <path id="24463304" class="fil0" d="M-1689 2c0,10 6,16 17,19 16,4 24,6 26,8 1,-2 5,-2 11,-2 4,0 7,2 10,8 4,5 7,7 12,7 2,0 5,0 10,-1 8,2 26,12 53,29 23,14 42,21 58,21 11,20 36,52 75,94 34,38 57,70 67,96l13 0 0 13c0,17 5,26 14,26 37,111 56,200 56,267 0,-4 -1,19 -4,67 -5,68 -9,114 -15,138 -11,54 -31,128 -56,162 -37,89 -75,126 -160,189 -69,0 -31,35 -82,35 -9,0 -87,35 -105,30l-14 12c-13,0 -31,0 -57,1 -25,0 -45,0 -57,0 -75,0 -149,-16 -222,-52 -86,-41 -147,-100 -184,-176 -7,-14 -21,-25 -32,-45 -43,-76 -76,-166 -76,-293 -4,-61 -7,-89 -5,-149 1,-13 1,-32 9,-57 8,-25 12,-45 12,-59 0,-52 17,-17 26,-62 4,-15 7,-31 10,-47 19,-25 43,-67 72,-125 13,-4 26,-14 41,-32 15,-17 29,-28 42,-33 5,-8 16,-14 32,-17 24,-5 36,-7 37,-7 0,-16 7,-25 20,-25 4,0 8,1 13,1 4,1 8,1 10,1 10,0 15,-5 15,-15 8,-3 32,-4 73,-4 31,0 48,-8 53,-23 16,4 32,6 50,6 11,0 29,-1 53,-4 24,-3 42,-4 54,-4 4,0 8,0 14,1 5,1 9,1 11,1zm-149 190c-26,0 -57,15 -88,15 -27,26 -53,52 -79,79 -14,15 -40,61 -43,61 -5,0 -50,113 -50,179 0,18 -6,73 -4,109 1,13 11,58 8,70 -3,7 5,50 5,53 0,12 3,26 9,42 7,19 11,32 12,40 0,11 3,27 7,48 8,26 30,53 65,82 46,35 73,59 83,72 11,-4 29,3 39,3 11,0 19,-5 38,3 19,8 35,12 46,12 25,0 62,-10 88,-18 12,-4 51,-31 57,-39 44,-13 62,-31 83,-82 26,-60 40,-80 51,-142 6,-36 2,-176 3,-217 -6,-76 -54,-297 -166,-355 -25,-13 -50,-22 -73,-22 -36,0 -46,7 -91,7zm1000 -137c45,28 73,66 83,115 11,10 24,37 39,81 13,38 33,61 60,71 34,76 75,131 125,164 23,42 46,85 69,127 32,52 66,85 102,101 14,-9 23,-28 26,-58 3,-35 -5,-94 2,-104 0,-94 -11,-146 -11,-260 0,-30 -5,-54 -17,-72 -10,-14 -42,-21 -95,-21 -15,0 -26,-2 -33,-4l-18 -17c-3,0 -6,2 -9,5l-16 0c-10,-32 -16,-53 -16,-63 0,-17 15,-38 45,-65 26,-3 65,-4 117,-4 21,0 74,1 161,4 64,2 117,2 157,0 2,5 9,18 21,39 9,17 13,30 13,39 0,13 -7,25 -21,37 2,16 -6,25 -23,26 3,0 -13,0 -46,0 -28,0 -42,13 -42,37l0 330c0,4 -1,10 -1,17 -1,7 -2,13 -2,17 0,13 3,34 7,61 4,28 7,48 7,62 0,17 -4,37 -11,59 3,13 4,25 4,34 0,12 -1,31 -4,55 -3,24 -5,43 -5,54 0,29 7,52 20,72 -4,15 -7,56 -7,123 0,58 -15,87 -45,87 -6,0 -16,-1 -29,-4 -14,-3 -24,-4 -31,-4 -3,-13 -9,-19 -17,-19 -3,0 -7,2 -12,6 -33,-20 -66,-54 -99,-101 -46,-65 -74,-103 -83,-113 0,-24 -9,-45 -26,-65 -17,-18 -34,-35 -50,-53 -4,-6 -12,-22 -23,-48 -16,-40 -67,-121 -154,-243 -10,-13 -25,-33 -43,-60 -14,-28 -25,-46 -31,-53 -14,-18 -32,-30 -54,-36 -12,20 -18,43 -18,71 0,12 1,30 4,54 2,25 3,43 3,55 0,4 0,10 -1,18 -1,7 -1,13 -1,16 0,5 0,12 1,21 1,9 1,16 1,20 0,18 -2,44 -6,79 -3,35 -5,61 -5,79 0,25 3,48 9,68 -5,10 -7,22 -7,34 0,16 6,38 18,66 12,28 18,49 18,64 93,0 154,12 182,38l0 8c0,54 -14,85 -43,94 -1,3 -6,4 -14,4 -3,0 -7,0 -14,-1 -6,-1 -11,-1 -14,-1 -10,0 -14,4 -14,12l-196 11c0,-16 -19,-25 -58,-25 -8,0 -13,5 -13,14 -39,8 -69,11 -89,11 -35,0 -62,-8 -79,-25l-13 0c-12,-14 -17,-31 -17,-51 0,-31 10,-60 30,-89 8,0 22,1 40,3 18,2 32,3 41,3 40,0 60,-14 60,-43 0,-31 -4,-120 -11,-266 0,-29 -2,-71 -4,-128 -1,-8 -2,-20 -4,-37 -2,-17 -3,-31 -3,-42 0,-22 3,-55 8,-101 5,-46 7,-80 7,-103 0,-44 -7,-85 -22,-122 -3,2 -9,2 -16,2 -11,0 -24,-5 -39,-14 -16,-10 -29,-15 -40,-15 -2,0 -5,0 -9,1 -3,0 -6,1 -8,1 -28,-25 -41,-50 -41,-77 0,-25 9,-39 28,-43 18,-5 27,-11 26,-20 75,-3 131,-4 168,-4 36,0 93,1 171,4zm1427 6c4,1 36,3 97,5 40,2 68,14 85,34 7,-1 17,3 30,11 13,8 25,13 37,13 10,0 25,-6 45,-16 21,-10 37,-15 51,-15 12,0 23,2 34,7 24,38 37,82 37,135 0,13 -2,30 -4,50 -2,25 -3,42 -3,51 -1,13 -2,30 -2,54 -1,3 -2,8 -3,15 0,6 0,11 0,16 0,13 3,33 7,60 5,26 7,47 7,61 0,21 -4,37 -11,51 -27,8 -78,12 -154,12 -33,-26 -54,-86 -62,-178 -7,-83 -37,-132 -92,-149 -12,2 -20,3 -25,3 -12,0 -26,-7 -41,-22 -16,-16 -32,-24 -48,-24 -12,0 -21,2 -27,4 -24,13 -57,38 -99,75l-13 0c-15,0 -27,9 -35,25 -7,17 -15,25 -22,25 -14,31 -24,76 -31,134 -7,63 -15,107 -25,133 3,15 6,52 8,110 1,45 8,81 20,106 0,96 51,177 154,241 9,-2 21,-4 38,-4 7,0 17,1 30,1 14,1 24,1 31,1 19,0 33,-4 42,-12 20,0 39,-13 55,-39 17,-29 32,-45 44,-49 13,-16 29,-48 48,-98 16,-42 38,-73 64,-93l112 0c29,21 43,47 43,77 0,11 -3,29 -8,52 -5,23 -7,41 -7,53l0 22c0,8 -2,19 -6,31 -17,73 -66,134 -148,184 -14,11 -38,28 -71,50 -3,3 -8,4 -14,4 -2,0 -7,0 -13,-1 -7,-1 -12,-1 -16,-1 -8,0 -13,4 -13,13 -36,4 -74,7 -112,7 -39,0 -72,-3 -99,-7 -4,-13 -15,-19 -34,-19 -5,0 -11,1 -20,1 -8,1 -16,1 -20,1 -13,0 -21,-3 -25,-10 -55,-8 -111,-54 -168,-139 -46,-21 -79,-68 -99,-142 -13,-59 -27,-117 -40,-176 1,-7 2,-17 2,-31 0,-11 -2,-28 -5,-51 -3,-23 -4,-40 -4,-51l7 -43c0,-115 27,-217 83,-305 0,-34 15,-66 45,-96 38,-38 60,-65 68,-80 16,-5 38,-15 65,-32 26,-17 47,-28 62,-33 2,-5 9,-8 21,-8 3,0 7,1 14,1 6,1 11,1 14,1 14,0 21,-6 21,-18 6,0 14,-1 26,-2 13,-2 22,-3 27,-3 24,0 39,6 45,17zm1080 -24c12,0 16,4 13,14 20,-15 49,-22 86,-22 14,0 35,1 63,4 28,2 48,4 62,4 11,15 31,22 61,22 12,0 31,-1 55,-4 24,-3 42,-4 55,-4l13 -14c0,13 14,19 43,19 33,1 51,7 56,19 16,7 27,22 31,45 4,19 7,37 11,56 -3,8 -4,15 -4,19 0,42 6,67 -11,121 10,40 15,75 15,103 0,33 -5,58 -15,75l-126 0c-22,-20 -36,-57 -44,-110 -10,-65 -18,-105 -24,-119 -18,-37 -51,-54 -100,-51 -11,-14 -50,-21 -117,-21 -18,0 -30,-2 -38,-4l-29 25c-9,0 -20,-4 -34,-12 -15,-9 -27,-13 -36,-13 -2,0 -4,1 -7,3 -2,1 -4,2 -6,3 -19,9 -36,42 -55,97 -13,59 -15,64 -16,86 -2,27 1,43 11,87 13,52 35,81 96,81 14,0 26,0 34,-2 10,-9 -1,-45 -1,-62 0,-42 -14,7 3,-43 8,-24 22,-36 41,-36 18,0 27,-8 27,-24 0,16 19,24 57,24 13,0 22,11 26,34 10,50 31,22 31,84 0,29 -11,76 -7,133 7,101 -1,88 -4,180 -31,14 -122,42 -140,7 -6,-11 -26,-17 -33,-37 -8,-24 -8,-28 -28,-73 -74,0 -98,8 -98,42 0,4 0,9 1,15 1,7 1,11 1,15 0,16 -3,40 -10,71 -6,30 -13,54 -10,69 14,58 -11,142 91,144 83,0 84,-31 184,-23 44,3 80,8 126,8 11,0 18,2 23,5 32,-25 48,-73 51,-144 2,-65 22,-106 61,-124 0,-12 9,-18 28,-18 19,0 28,-6 28,-18 57,17 85,46 85,89 -8,8 5,45 5,59 0,44 -10,44 -5,105 -4,20 -6,51 -6,93 1,43 -2,75 -7,97 -20,0 -20,44 -20,52l-98 15c-9,-8 -93,-21 -116,-21 -7,0 -27,-1 -42,0 -106,10 -46,-4 -158,0 -7,1 -59,10 -74,11 -15,2 -25,7 -33,7 -10,0 -23,-2 -38,-4 0,5 -26,-2 -28,0 -13,14 -45,0 -64,0 -8,0 -20,0 -36,2 -15,1 -27,2 -35,2 -16,0 -27,-2 -34,-4 0,8 -27,7 -36,7 -32,0 -20,-18 -64,-13 -13,1 -22,2 -28,2 -24,0 -38,-6 -43,-16l-65 -40c-16,-11 -24,-25 -24,-43 0,-9 4,-23 12,-41 8,-19 12,-33 12,-44 5,-10 21,-16 45,-16 7,0 19,1 33,2 15,2 27,3 34,3 36,-20 55,-57 55,-112 0,-13 -1,-32 -3,-56 -1,-25 -2,-43 -2,-56 0,-25 2,-43 7,-56 -5,-38 -7,-94 -7,-170 0,-56 -1,-94 -3,-113l-4 -59c0,-6 0,-15 2,-28 1,-13 2,-23 2,-30 0,-43 -7,-95 -20,-156l-83 -38c-38,0 -58,-26 -58,-78 0,-65 46,-98 139,-98 27,0 67,3 121,9 54,5 94,8 121,8 13,0 29,-1 49,-3 3,0 7,-1 12,-2 5,-2 8,-2 9,-2z"/>
 </g>
</svg>
