<?xml version="1.0" encoding="iso-8859-1"?>
<!DOCTYPE svg PUBLIC "-//W3C//DTD SVG 20000303 Stylable//EN" "http://www.w3.org/TR/2000/03/WD-SVG-20000303/DTD/svg-20000303-stylable.dtd">
<!-- Creator: CorelDRAW -->
<svg xml:space="preserve" x="-4.38749in" y="3.27409in" width="8.18801in" height="7.88828in" style="shape-rendering:geometricPrecision; text-rendering:geometricPrecision; image-rendering:optimizeQuality"
     viewBox="-4387 0 8188 7888">
 <defs>
  <style type="text/css">
   <![CDATA[
    .fil4 {fill:#131516}
    .fil9 {fill:#19191A}
    .fil5 {fill:#1E1C1D}
    .fil6 {fill:#2E2023}
    .fil8 {fill:#522628}
    .fil7 {fill:#5C2729}
    .fil2 {fill:#C22C2A}
    .fil3 {fill:#C22E2A}
    .fil12 {fill:#D42A26}
    .fil11 {fill:#D82624}
    .fil10 {fill:#D92625}
    .fil0 {fill:#D92825}
    .fil1 {fill:#D92925}
   ]]>
  </style>
 </defs>
 <g id="Layer 1">
  <g>
   <path id="58085264" class="fil0" d="M767 7537c0,-12 0,-25 0,-37 10,0 23,0 35,0 0,-49 0,-49 24,-49 7,32 16,65 25,98 15,4 31,7 49,11 15,28 31,55 49,85 80,-3 157,-31 223,18 5,-14 12,-28 19,-42 23,3 48,7 72,12 -47,110 -54,211 -79,248 -43,2 -85,4 -127,7 -231,-304 -231,-304 -290,-351z"/>
   <path id="58085352" class="fil1" d="M767 7500c-194,-73 -219,-98 -280,-98 -17,-8 -33,-17 -49,-24 0,-16 0,-32 0,-47 -106,-13 -213,-25 -318,-35 -12,-58 -22,-116 -33,-172 35,-164 253,-24 339,-110 0,-125 -77,-178 -185,-209 -124,-116 -166,-191 -392,-385 13,-213 -42,-157 -139,-304 62,-49 57,-108 122,-145 16,0 31,0 49,0 49,142 141,290 290,339 0,16 0,32 0,49 145,82 192,388 341,388 0,12 0,24 0,37 15,0 31,0 49,0 3,99 31,106 56,192 284,19 501,94 781,112 43,31 87,63 132,96 0,117 0,234 0,353 -31,17 -31,17 -59,70 -70,8 -140,17 -208,26 -24,-5 -49,-9 -72,-12 -7,14 -14,28 -19,42 -66,-49 -143,-21 -223,-18 -18,-30 -34,-57 -49,-85 -18,-4 -34,-7 -49,-11 -9,-33 -18,-66 -25,-98 -24,0 -24,0 -24,49 -12,0 -25,0 -35,0z"/>
   <path id="58085440" class="fil1" d="M-3008 7488c0,-133 -45,-196 -61,-316 9,-42 18,-84 26,-124 60,-28 119,-56 180,-83 16,-5 32,-8 49,-12 201,0 404,0 607,0 19,-5 40,-9 61,-12 12,0 24,0 36,0 35,-66 70,-133 107,-198 24,-7 49,-14 73,-19 60,-164 196,-243 275,-402 288,-216 480,-533 795,-721 3,-72 7,-144 12,-214 -5,-192 -10,-382 -16,-573 -12,0 -22,2 -33,4 -24,0 -49,0 -71,0 -9,-46 -18,-89 -25,-133 7,-9 16,-18 25,-25 -6,-36 -9,-73 -13,-110 16,0 32,0 47,0 32,6 63,11 95,18 61,-68 49,-95 52,-187 4,-61 7,-123 13,-182 71,-72 71,-72 125,-176 30,-2 62,-4 93,-6 89,166 -44,283 -25,462 114,38 144,113 256,132 57,121 59,180 52,317 -260,119 -278,370 -283,631 72,47 72,47 145,59 35,94 77,121 157,184 0,15 0,31 0,47 37,12 49,42 86,49 0,24 0,49 0,73 -65,37 -60,96 -122,145 -48,-75 -207,-369 -327,-339 -65,89 -65,89 -110,121 -47,-49 -47,-49 -60,-109 -82,53 -129,77 -181,158 -49,36 -49,36 -214,309 0,241 -232,515 -445,598 -4,117 -4,117 35,218 -110,238 -231,61 -416,161 -2,12 -4,24 -5,36 -119,46 -119,46 -219,49 -248,119 -470,254 -751,254 -9,-28 -18,-56 -25,-84z"/>
   <path id="58085528" class="fil2" d="M87 7124c11,56 21,114 33,172 105,10 212,22 318,35 0,15 0,31 0,47 -346,-19 -346,-19 -391,-46 -4,-118 -4,-118 21,-202 5,-2 12,-4 19,-6z"/>
   <path id="58085616" class="fil3" d="M-860 5387c-12,-190 -25,-381 -37,-569 11,-2 21,-4 33,-4 6,191 11,381 16,573 -5,0 -9,0 -12,0z"/>
   <path id="58085704" class="fil4" d="M-774 4199c-200,-86 -140,-267 -292,-414 -13,-39 -25,-75 -35,-112 29,-5 59,-10 89,-16 110,119 252,96 407,93 0,19 0,40 0,61 143,61 306,42 461,47 0,-21 0,-40 0,-59 158,-37 290,-98 388,-110 0,-12 0,-25 0,-37 89,-16 179,-31 268,-47 42,35 42,35 49,96 -83,59 -163,121 -243,182 0,19 0,40 0,61 -227,138 -673,304 -643,643 0,7 0,16 0,24 -112,-19 -142,-94 -256,-132 -19,-179 114,-296 25,-462 -31,2 -63,4 -93,6 -54,104 -54,104 -125,176z"/>
   <path id="58085792" class="fil1" d="M-325 4587c-30,-339 416,-505 643,-643 0,-21 0,-42 0,-61 80,-61 160,-123 243,-182 97,-28 178,-96 194,-194 -107,16 -154,39 -243,98 -89,16 -179,31 -268,47 0,12 0,25 0,37 -98,12 -230,73 -388,110 -169,0 -302,7 -461,-49 -155,3 -297,26 -407,-93 -30,6 -60,11 -89,16 10,37 22,73 35,112 152,147 92,328 292,414 -6,59 -9,121 -13,182 -84,30 -134,70 -147,169 -15,0 -31,0 -47,0 -24,-5 -49,-8 -73,-12 -124,-266 -344,-428 -474,-702 -73,-49 -73,-49 -169,-184 -21,2 -42,5 -63,9 -30,203 -59,246 -68,404 -18,3 -35,7 -51,12 -24,-21 -49,-40 -73,-60 -7,-19 -14,-38 -20,-56 -29,-7 -59,-12 -89,-17 16,-189 16,-189 48,-255 22,-60 38,-116 0,-170 -16,-112 -16,-112 -46,-146 -112,7 -169,36 -293,26 -46,-74 -46,-109 -49,-196 160,-288 171,-281 -100,-521 -30,-80 -40,-168 -119,-206 -40,-103 -85,-119 -96,-243 -17,0 -33,0 -49,0 -77,-154 -68,-253 -68,-425 -37,-19 -37,-19 -178,-27 -138,162 -234,279 -462,316 -91,159 -466,52 -522,271 -98,87 -121,89 -254,98 -59,-109 -199,-102 -110,-273 37,-19 76,-39 114,-58 0,-12 0,-24 0,-35 86,-15 108,-24 169,-85 95,-34 144,-65 219,-133 113,-37 337,-143 400,-250 -241,-170 -440,23 -440,-311 66,-30 134,-59 202,-89 128,23 507,166 607,127 -21,-96 -40,-192 -60,-286 -70,-109 -206,-240 -129,-385 105,-3 212,-7 318,-8 12,36 84,97 96,145 12,1 25,3 37,5 31,59 124,260 211,225 18,-64 37,-129 56,-194 114,-206 124,-533 182,-763 11,-30 21,-60 33,-88 25,-3 51,-7 77,-10 7,47 14,96 23,145 7,255 16,510 24,765 -28,102 -56,203 -84,304 0,23 0,48 0,72 -14,3 -28,7 -40,10 -3,28 -7,58 -8,88 40,-5 80,-9 120,-12 175,-159 593,-259 827,-243 12,29 -32,91 -86,292 -12,0 -24,0 -37,0 0,34 0,34 -24,59 -121,49 -121,49 -145,86 -194,35 -552,-62 -655,181 -18,0 -34,0 -49,0 -14,100 -100,84 -184,95 -3,70 -7,139 -10,209 15,0 31,0 49,0 47,270 195,308 436,401 13,85 37,108 60,220 31,-2 64,-2 98,-2 52,-91 206,-175 206,-267 -246,-196 -47,-278 134,-413 -26,-87 -73,-115 -73,-206 61,-86 61,-86 61,-121 128,-136 317,-97 497,-110 97,-42 173,-36 279,-36 0,12 0,24 0,36 136,27 248,70 364,110 14,114 17,131 122,158 0,-18 0,-33 0,-49 28,0 56,0 84,0 3,31 7,64 12,98 16,10 32,22 49,35 37,-25 73,-49 110,-72 114,-229 369,-119 526,-290 231,-70 231,-70 336,-75 76,115 76,115 129,265 199,11 285,6 442,123 0,28 2,56 4,85 -25,13 -49,25 -74,37 19,149 210,250 348,267 141,343 384,-71 521,-122 24,12 49,25 75,38 7,28 14,56 23,84 -21,2 -42,4 -62,6 -50,75 -89,153 -167,197 -9,198 21,388 -27,585 -17,81 -33,161 -49,243 -96,46 -96,46 -132,98 -42,-15 -82,-31 -123,-47 -113,75 -22,246 -181,325 -7,86 -7,86 -35,110 -23,-3 -44,-7 -65,-10 -28,-88 -28,-88 -58,-100 -150,82 -304,94 -473,122 0,105 -310,217 -388,243 -93,172 -116,261 -292,339 -25,-24 -25,-24 -121,-24 -138,145 -181,213 -375,255z"/>
   <path id="58085880" class="fil5" d="M-934 4550c13,-99 63,-139 147,-169 -3,92 9,119 -52,187 -32,-7 -63,-12 -95,-18z"/>
   <path id="58085968" class="fil6" d="M-605 3750c159,56 292,49 461,49 0,19 0,38 0,59 -155,-5 -318,14 -461,-47 0,-21 0,-42 0,-61z"/>
   <path id="58086056" class="fil7" d="M561 3701c-7,-61 -7,-61 -49,-96 89,-59 136,-82 243,-98 -16,98 -97,166 -194,194z"/>
   <path id="58086144" class="fil4" d="M-1297 2950c87,-88 24,-280 37,-402 26,-4 52,-6 78,-7 65,-121 79,-184 91,-320 60,-12 121,-25 182,-37 91,-19 91,-19 318,-23 47,28 82,84 131,97 4,49 7,97 11,146 204,76 615,172 657,-159 49,-36 49,-36 97,-36 53,52 109,35 184,33 61,77 225,136 318,178 -3,101 24,348 -96,395 -25,115 -25,115 -18,243 28,2 56,5 84,9 0,344 -568,447 -837,470 -38,-96 -77,-191 -115,-285 -96,-33 -107,-30 -206,5 -163,-17 -194,-37 -236,-30 -25,37 -25,37 -32,249 -35,1 -68,3 -101,7 -58,-119 -243,-56 -280,-170 -138,-68 -227,-220 -267,-363z"/>
   <path id="58086232" class="fil8" d="M1786 3374c36,-52 36,-52 132,-98 16,-82 32,-162 49,-243 7,7 16,16 25,25 -9,96 -18,194 -25,292 -61,7 -122,16 -181,24z"/>
   <path id="58086320" class="fil8" d="M-1187 2258c32,-13 63,-25 96,-37 -12,136 -26,199 -91,320 -26,1 -52,3 -78,7 -13,122 50,314 -37,402 -17,0 -33,0 -49,0 0,-147 21,-193 33,-399 65,-119 206,-119 126,-293z"/>
   <path id="58086408" class="fil0" d="M-460 2258c25,-18 49,-34 73,-49 23,8 23,8 62,91 132,-2 265,-4 398,-4 4,-14 9,-26 14,-38 40,-6 80,-9 121,-13 -42,331 -453,235 -657,159 -4,-49 -7,-97 -11,-146z"/>
   <path id="58086496" class="fil1" d="M3023 2415c3,-21 7,-42 12,-61 -98,-16 -225,-110 -314,-47 -34,-9 -67,-18 -98,-25 0,-17 0,-33 0,-49 -144,-37 -271,-52 -315,-206 -58,0 -115,0 -171,0 0,-12 0,-25 0,-37 -91,-31 -219,-36 -243,-61 0,-21 0,-40 0,-59 -129,0 -259,0 -388,0 0,-67 0,-131 0,-196 170,0 339,0 510,0 72,3 145,7 219,12 3,-12 7,-24 12,-35 24,-49 24,-49 70,-327 49,-113 98,-227 148,-340 62,-371 -31,-622 339,-572 7,185 20,353 -12,535 -12,194 -36,243 -47,388 204,-44 374,-364 582,-364 0,-12 0,-24 0,-36 246,-74 328,-30 297,218 -101,46 -101,46 -224,61 0,11 0,23 0,35 -141,35 -288,173 -304,317 -28,14 -28,14 -49,61 -5,15 -8,31 -12,47 201,-4 404,-7 606,-11 28,0 56,0 86,0 0,11 0,23 0,35 12,0 25,0 37,0 12,13 24,25 37,37 -4,40 -7,80 -11,122 -110,91 -301,65 -442,74 -82,71 -82,71 -131,84 -9,-9 -16,-18 -23,-25 -183,12 -183,12 -234,39 9,19 19,38 30,57 35,4 70,9 106,14 0,11 0,23 0,35 13,0 25,0 37,0 149,124 255,105 206,317 -110,36 -220,33 -316,-37z"/>
   <path id="58086584" class="fil9" d="M-387 2209c2,-34 4,-67 6,-98 17,-9 36,-16 56,-23 138,21 190,100 302,121 0,15 0,31 0,49 37,0 73,0 110,0 -5,12 -10,24 -14,38 -133,0 -266,2 -398,4 -39,-83 -39,-83 -62,-91z"/>
   <path id="58086672" class="fil10" d="M-1187 2258c0,-42 0,-83 0,-123 253,25 253,25 278,49 -61,12 -122,25 -182,37 -33,12 -64,24 -96,37z"/>
   <path id="58086760" class="fil5" d="M-23 2209c42,-20 42,-20 86,-98 75,2 152,5 229,9 3,29 8,59 13,89 -48,0 -48,0 -97,36 -41,4 -81,7 -121,13 -37,0 -73,0 -110,0 0,-18 0,-34 0,-49z"/>
   <path id="58086848" class="fil0" d="M-325 2088c43,-24 87,-49 132,-73 18,29 18,29 62,49 24,-25 24,-25 59,-25 5,14 11,28 17,42 14,-7 28,-12 44,-17 25,15 49,31 74,47 -44,78 -44,78 -86,98 -112,-21 -164,-100 -302,-121z"/>
   <path id="58086936" class="fil2" d="M1482 1663c7,0 15,0 24,0 0,4 0,7 0,11 0,65 0,129 0,196 129,0 259,0 388,0 0,19 0,38 0,59 -370,-7 -370,-7 -428,-26 -4,-187 -4,-187 16,-240z"/>
   <path id="58087024" class="fil11" d="M-484 1663c57,6 57,6 194,69 3,12 7,26 12,40 -28,0 -56,0 -84,0 0,16 0,31 0,49 -105,-27 -108,-44 -122,-158z"/>
   <path id="58087112" class="fil12" d="M3047 1627c7,7 16,15 25,24 189,4 379,7 569,12 -202,4 -405,7 -606,11 4,-16 7,-32 12,-47z"/>
  </g>
 </g>
</svg>
